<?xml version="1.0" encoding="iso-8859-1"?>
<!-- Generator: Adobe Illustrator 19.0.0, SVG Export Plug-In . SVG Version: 6.00 Build 0)  -->
<svg version="1.1" id="Capa_1" xmlns="http://www.w3.org/2000/svg" xmlns:xlink="http://www.w3.org/1999/xlink" x="0px" y="0px"
	 viewBox="0 0 512 512" style="enable-background:new 0 0 512 512;" xml:space="preserve">
<path d="M225.5,285.146c4.142,0,7.5-3.357,7.5-7.5v-44.178c0-3.085-2.103-5.854-4.974-6.981c-2.871-1.129-6.246-0.38-8.345,1.88
	l-15.91,17.086l-16.029-17.107c-2.104-2.25-5.251-2.985-8.114-1.853c-2.864,1.13-4.628,3.896-4.628,6.976v44.178
	c0,4.143,3.358,7.5,7.5,7.5s7.5-3.357,7.5-7.5v-25.181l8.393,9.04c1.418,1.517,3.271,2.304,5.346,2.304c0.005,0,0.01,0,0.015,0
	c2.082,0,4.282-0.8,5.698-2.325l8.549-8.907v25.069C218,281.789,221.358,285.146,225.5,285.146z"/>
<path d="M249.5,225.968c-4.142,0-7.5,3.357-7.5,7.5v44.178c0,4.143,3.358,7.5,7.5,7.5s7.5-3.357,7.5-7.5v-44.178
	C257,229.326,253.642,225.968,249.5,225.968z"/>
<path d="M337,233.468c0-4.143-3.358-7.5-7.5-7.5s-7.5,3.357-7.5,7.5v44.178c0,4.143,3.358,7.5,7.5,7.5s7.5-3.357,7.5-7.5V233.468z"
	/>
<path d="M298,233.468v20.472l-17.605-24.785c-1.881-2.677-5.162-3.823-8.277-2.837c-3.118,0.986-5.117,3.88-5.117,7.15v44.178
	c0,4.143,3.358,7.5,7.5,7.5s7.5-3.357,7.5-7.5v-20.472l17.217,24.785c1.431,2.036,3.635,3.188,6.031,3.188
	c0.753,0,1.642-0.114,2.388-0.351c3.118-0.986,5.364-3.88,5.364-7.15v-44.178c0-4.143-3.358-7.5-7.5-7.5S298,229.326,298,233.468z"
	/>
<path d="M504.5,195.81H368.292c-21.555-40-63.802-67.145-112.287-67.145c-48.48,0-90.724,27.145-112.281,67.145H7.5
	c-4.142,0-7.5,3.357-7.5,7.5s3.358,7.5,7.5,7.5h129.352c-2.54,6-4.539,13-5.942,20H42.37c-4.142,0-7.5,3.357-7.5,7.5
	s3.358,7.5,7.5,7.5h86.375c-0.241,4-0.302,6.562-0.302,9.815c0,3.72,0.232,7.185,0.546,11.185H77.24c-4.142,0-7.5,3.357-7.5,7.5
	s3.358,7.5,7.5,7.5h53.943c1.261,6,2.95,12,5.039,18H115.94c-4.142,0-7.5,3.357-7.5,7.5s3.358,7.5,7.5,7.5h26.908
	c21.273,41,64.01,68.524,113.158,68.524c24.234,0,47.813-6.966,68.188-19.885c3.498-2.218,4.536-6.921,2.318-10.42
	c-2.218-3.497-6.851-4.57-10.35-2.352c-17.968,11.393-38.77,17.398-60.155,17.398c-62.033,0-112.5-50.476-112.5-112.508
	s50.467-112.504,112.5-112.504s112.5,50.465,112.5,112.498c0,28.386-10.602,55.492-29.853,76.327
	c-2.811,3.042-2.624,7.787,0.418,10.598c3.042,2.812,7.788,2.894,10.598-0.148c7.801-8.442,14.341-17.527,19.535-27.527h26.856
	c4.142,0,7.5-3.357,7.5-7.5s-3.358-7.5-7.5-7.5h-20.25c2.094-6,3.768-12,5.017-18h53.933c4.142,0,7.5-3.357,7.5-7.5
	s-3.358-7.5-7.5-7.5h-51.737c0.316-4,0.483-7.496,0.483-11.205c0-3.246-0.124-5.795-0.363-9.795h86.487c4.142,0,7.5-3.357,7.5-7.5
	s-3.358-7.5-7.5-7.5h-88.524c-1.402-7-3.401-14-5.942-20H504.5c4.142,0,7.5-3.357,7.5-7.5S508.642,195.81,504.5,195.81z"/>
<g>
</g>
<g>
</g>
<g>
</g>
<g>
</g>
<g>
</g>
<g>
</g>
<g>
</g>
<g>
</g>
<g>
</g>
<g>
</g>
<g>
</g>
<g>
</g>
<g>
</g>
<g>
</g>
<g>
</g>
</svg>
