<?xml version="1.0" encoding="iso-8859-1"?>
<!-- Generator: Adobe Illustrator 19.0.0, SVG Export Plug-In . SVG Version: 6.00 Build 0)  -->
<svg version="1.1" id="Capa_1" xmlns="http://www.w3.org/2000/svg" xmlns:xlink="http://www.w3.org/1999/xlink" x="0px" y="0px"
	 viewBox="0 0 47.449 47.449" style="enable-background:new 0 0 47.449 47.449;" xml:space="preserve">
<g>
	<g>
		<path d="M16.928,33.76c-0.048-0.005-0.095-0.005-0.142-0.005c-0.499-0.008-0.956,0.141-1.396,0.359
			c-0.08,0.041-0.248,0.198-0.235-0.047c0.017-0.316-0.148-0.319-0.368-0.303c-0.153,0.009-0.313,0.018-0.463-0.003
			c-0.274-0.036-0.335,0.074-0.334,0.336c0.012,1.979,0.007,3.961,0.007,5.94c0,0.836,0,0.82,0.827,0.836
			c0.282,0.007,0.329-0.092,0.326-0.344c-0.011-1.506,0.019-3.014-0.02-4.52c-0.012-0.494,0.213-0.743,0.585-0.945
			c0.187-0.102,0.391-0.161,0.608-0.183c0.513-0.051,0.978,0.103,1.479,0.349c0-0.219,0-0.385,0-0.551
			C17.802,33.917,17.697,33.808,16.928,33.76z"/>
	</g>
</g>
<g>
	<g>
		<path d="M13.314,39.168c-0.346,0.157-0.644,0.299-0.948,0.422c-0.317,0.132-0.651,0.217-0.995,0.248
			c-1.37,0.13-2.504-0.333-2.794-1.818c-0.042-0.206-0.051-0.423-0.082-0.634c-0.044-0.293,0.032-0.407,0.371-0.404
			c1.375,0.013,2.751-0.017,4.126-0.009c0.312,0.004,0.339-0.093,0.291-0.364c-0.094-0.513-0.239-1.007-0.46-1.486
			c-1.04-2.244-3.833-1.769-4.796-0.489c-1.092,1.456-1.005,3.991,0.247,5.31c1.096,1.153,3.543,1.414,4.854,0.521
			c0.126-0.089,0.197-0.182,0.189-0.346C13.305,39.813,13.314,39.504,13.314,39.168z M8.738,35.694
			c0.263-0.628,1.025-1.057,1.845-1.024c0.66,0.026,1.147,0.452,1.375,1.231c-1.05,0-2.068-0.002-3.089,0
			C8.695,35.903,8.671,35.854,8.738,35.694z"/>
	</g>
</g>
<g>
	<g>
		<path d="M21.165,16.847c-0.942,0.002-1.758,0.348-2.431,1.017c-1.424,1.416-2.849,2.831-4.275,4.243
			c-1.552,1.533-3.093,3.081-4.677,4.583c-0.213,0.2-0.785,0.346-0.95,0.215c-0.423-0.34-0.069-0.705,0.204-1.01
			c0.051-0.056,0.104-0.107,0.157-0.162c3.088-3.083,6.178-6.171,9.267-9.255c1.204-1.203,2.41-2.406,3.637-3.629L14.66,5.145
			c-0.05,0-5.408,5.532-5.408,5.532C8.636,11.289,8.291,12.02,8.29,12.89c-0.003,4.315,0.013,8.629-0.009,12.943
			c-0.005,0.752,0.214,1.313,0.881,1.675c4.774,0,9.547,0,14.319,0c0.771-0.495,11.873-10.661,11.873-10.661
			S25.584,16.839,21.165,16.847z"/>
	</g>
</g>
<g>
	<g>
		<path d="M19.593,34.599c-0.001-0.847-0.001-0.838-0.848-0.841c-0.229-0.001-0.302,0.054-0.299,0.293
			c0.014,1.079,0.006,2.157,0.006,3.237c0,0.925,0,1.851,0,2.774c0,0.804,0,0.791,0.812,0.806c0.263,0.004,0.337-0.058,0.334-0.33
			C19.586,38.559,19.593,36.579,19.593,34.599z"/>
	</g>
</g>
<g>
	<g>
		<path d="M8.177,30.578c-0.248,0.02-0.502,0.021-0.748-0.002c-0.247-0.023-0.354,0.067-0.433,0.299
			c-0.325,0.964-0.67,1.921-1.009,2.88c-0.595,1.683-1.188,3.366-1.811,5.13c-0.058-0.139-0.086-0.201-0.109-0.268
			c-0.813-2.358-1.627-4.72-2.438-7.078c-0.334-0.971-0.333-0.961-1.374-0.965c-0.296,0-0.288,0.09-0.207,0.323
			c1.057,3.015,2.105,6.029,3.157,9.045c0.101,0.289,0.133,0.67,0.339,0.838c0.223,0.184,0.615,0.024,0.93,0.062
			c0.266,0.029,0.366-0.087,0.45-0.323c1.162-3.2,2.329-6.401,3.513-9.593C8.56,30.59,8.471,30.555,8.177,30.578z"/>
	</g>
</g>
<g>
	<g>
		<path d="M31.188,36.051c-0.4-1.408-1.63-2.442-2.981-2.511c-1.479-0.074-2.737,0.724-3.298,2.102
			c-0.303,0.74-0.366,1.508-0.27,2.299c0.281,2.305,2.522,3.668,4.625,2.799c1.295-0.537,2.089-1.851,2.09-3.516
			C31.376,36.859,31.302,36.45,31.188,36.051z M29.548,39.036c-0.848,1.003-2.371,0.963-3.188-0.076
			c-0.734-0.932-0.76-2.444-0.048-3.387c0.491-0.645,1.16-0.947,1.961-0.813c0.91,0.154,1.484,0.736,1.778,1.599
			c0.092,0.283,0.123,0.579,0.112,0.85C30.173,37.911,29.984,38.522,29.548,39.036z"/>
	</g>
</g>
<g>
	<g>
		<path d="M43.624,39.141c-0.652,0.369-1.28,0.641-1.973,0.703c-1.382,0.125-2.418-0.363-2.734-1.678
			c-0.068-0.285-0.087-0.582-0.108-0.88c-0.019-0.238,0.053-0.297,0.285-0.297c1.186,0.013,2.373,0.006,3.561,0.006
			c1.08,0,1.09-0.001,0.857-1.062c-0.241-1.08-0.771-1.96-1.917-2.25c-1.176-0.297-2.272-0.12-3.133,0.817
			c-0.659,0.717-0.891,1.62-0.899,2.558c-0.011,1.298,0.389,2.452,1.462,3.281c1.228,0.954,3.412,0.712,4.371,0.15
			c0.157-0.09,0.246-0.2,0.232-0.395C43.613,39.799,43.624,39.501,43.624,39.141z M39.027,35.715c0.19-0.648,0.968-1.095,1.84-1.043
			c0.781,0.049,1.285,0.479,1.406,1.216c-1.033,0-2.064-0.001-3.094,0.001C39.054,35.889,38.979,35.881,39.027,35.715z"/>
	</g>
</g>
<g>
	<g>
		<path d="M46.439,41.096c0.035-0.014,0.061-0.019,0.09-0.026c0.252-0.094,0.32-0.418,0.129-0.61
			c-0.074-0.076-0.162-0.097-0.262-0.097c-0.205-0.006-0.408,0.014-0.611,0.021c-0.129,0.006-0.129,0.006-0.123,0.137
			c0,0.012,0.002,0.024,0.004,0.037c0.01,0.204,0.022,0.406,0.031,0.609c0.006,0.159,0.01,0.319,0.022,0.475
			c0.004,0.111,0.006,0.107,0.115,0.105c0.076-0.004,0.076-0.012,0.072-0.082c-0.004-0.131-0.014-0.258-0.018-0.389
			c0-0.039-0.021-0.089,0.002-0.119c0.026-0.036,0.076-0.011,0.114-0.02c0.158-0.038,0.281,0.013,0.382,0.146
			c0.089,0.119,0.173,0.24,0.262,0.36c0.016,0.023,0.031,0.056,0.059,0.056c0.068,0,0.139,0.018,0.211-0.026
			C46.765,41.472,46.653,41.248,46.439,41.096z M46.311,40.951c-0.112,0.012-0.231,0.004-0.341,0.02c-0.009,0-0.019,0-0.029,0
			c-0.068,0-0.066-0.002-0.074-0.07c-0.008-0.089-0.002-0.181-0.016-0.275c-0.013-0.086-0.002-0.09,0.09-0.094
			c0.102-0.004,0.203,0,0.305-0.019c0.058-0.006,0.111,0,0.166,0.017c0.088,0.027,0.151,0.098,0.156,0.187
			c0.002,0.088-0.033,0.153-0.115,0.196C46.409,40.938,46.364,40.95,46.311,40.951z"/>
	</g>
</g>
<g>
	<g>
		<path d="M47.412,40.694c-0.177-0.623-0.791-1.023-1.45-0.904c-0.662,0.116-1.128,0.741-1.031,1.413
			c0.076,0.518,0.369,0.856,0.854,1.041c0.058,0.024,0.121,0.027,0.174,0.06c0.15,0,0.3,0,0.447,0
			c0.101-0.042,0.207-0.057,0.308-0.104c0.366-0.176,0.606-0.459,0.71-0.854c0.01-0.046,0-0.101,0.025-0.146
			c0-0.108,0-0.223,0-0.334C47.421,40.813,47.432,40.752,47.412,40.694z M46.186,42.083c-0.513-0.002-1.039-0.418-1.041-1.045
			c-0.002-0.578,0.463-1.045,1.049-1.043c0.597,0,1.053,0.509,1.035,1.043C47.252,41.575,46.768,42.086,46.186,42.083z"/>
	</g>
</g>
<g>
	<g>
		<path d="M26.499,30.545c-1.896,0.014-3.794,0.012-5.691,0c-0.253-0.002-0.31,0.069-0.308,0.313
			c0.013,1.613,0.007,3.225,0.007,4.838c0,1.412-0.005,2.823,0.002,4.233c0.003,0.304-0.136,0.706,0.068,0.88
			c0.175,0.148,0.564,0.028,0.857,0.061c0.292,0.029,0.377-0.059,0.374-0.36c-0.018-1.521-0.003-3.035-0.013-4.554
			c-0.002-0.238,0.045-0.329,0.304-0.318c0.521,0.021,1.044,0.007,1.565,0.007c0.875,0,0.867,0,0.857-0.866
			c-0.001-0.228-0.062-0.29-0.279-0.285c-0.724,0.014-1.445-0.002-2.169,0.012c-0.213,0.002-0.282-0.049-0.277-0.271
			c0.015-0.748,0.017-1.496-0.001-2.242c-0.007-0.252,0.063-0.312,0.311-0.309c1.292,0.012,2.586,0.006,3.877,0.006
			c0.82,0,0.812,0,0.82-0.828C26.806,30.627,26.761,30.543,26.499,30.545z"/>
	</g>
</g>
<g>
	<g>
		<path d="M18.913,32.219c-0.025,0-0.048,0.004-0.071-0.001c-0.33-0.062-0.413,0.084-0.399,0.4c0.026,0.576,0.008,0.578,0.563,0.578
			c0.083,0,0.168-0.014,0.248,0.002c0.276,0.043,0.354-0.062,0.345-0.34C19.579,32.219,19.594,32.219,18.913,32.219z"/>
	</g>
</g>
<g>
	<g>
		<path d="M37.14,35.978c-0.014-0.866-0.4-1.565-1.188-1.966c-0.998-0.505-1.992-0.565-2.996,0.209
			c0.08-0.396-0.07-0.509-0.389-0.46c-0.117,0.018-0.24,0.018-0.354,0c-0.305-0.046-0.399,0.048-0.396,0.377
			c0.018,1.969,0.008,3.936,0.008,5.904c0,0.809,0,0.795,0.818,0.805c0.271,0.005,0.333-0.077,0.331-0.339
			c-0.016-1.425,0.039-2.851-0.026-4.269c-0.031-0.672,0.279-0.996,0.787-1.266c0.115-0.061,0.236-0.109,0.359-0.15
			c1.016-0.322,1.881,0.309,1.884,1.373c0.005,1.258,0.001,2.516,0.001,3.771c0,0.896-0.001,0.89,0.889,0.878
			c0.213-0.002,0.285-0.057,0.285-0.277C37.141,39.037,37.163,37.507,37.14,35.978z"/>
	</g>
</g>
<g>
</g>
<g>
</g>
<g>
</g>
<g>
</g>
<g>
</g>
<g>
</g>
<g>
</g>
<g>
</g>
<g>
</g>
<g>
</g>
<g>
</g>
<g>
</g>
<g>
</g>
<g>
</g>
<g>
</g>
</svg>
