<?xml version="1.0" encoding="iso-8859-1"?>
<!-- Generator: Adobe Illustrator 19.0.0, SVG Export Plug-In . SVG Version: 6.00 Build 0)  -->
<svg version="1.1" id="Capa_1" xmlns="http://www.w3.org/2000/svg" xmlns:xlink="http://www.w3.org/1999/xlink" x="0px" y="0px"
	 viewBox="0 0 48.594 48.594" style="enable-background:new 0 0 48.594 48.594;" xml:space="preserve">
<g>
	<g>
		<path d="M34.451,14.286c-0.812,0-1.612,0-2.453,0c0-1.383,0-2.724,0-4.07c-0.608,0-1.192,0-1.779,0c0,1.846,0,3.671,0,5.504
			c1.42,0,2.824,0,4.234,0C34.451,15.237,34.451,14.773,34.451,14.286z"/>
	</g>
</g>
<g>
	<g>
		<path d="M24.294,14.27c0-0.208,0-0.392,0-0.608c0.869,0,1.724,0,2.578,0c0-0.463,0-0.894,0-1.356c-0.87,0-1.726,0-2.576,0
			c0-0.218,0-0.402,0-0.609c0.948,0,1.879,0,2.818,0c0-0.51,0-0.995,0-1.479c-1.553,0-3.089,0-4.623,0c0,1.846,0,3.67,0,5.503
			c1.584,0,3.151,0,4.727,0c0-0.482,0-0.946,0.001-1.451C26.226,14.27,25.261,14.27,24.294,14.27z"/>
	</g>
</g>
<g>
	<g>
		<path d="M36.131,10.213c0,0.503,0,0.989,0,1.499c0.509,0,0.997,0,1.508,0c-0.002,1.346-0.002,2.672-0.002,4.011
			c0.62,0,1.199,0,1.811,0c0-1.347,0-2.677,0-4.031c0.537,0,1.041,0,1.545,0c0-0.511,0-0.997,0-1.479
			C39.358,10.213,37.748,10.213,36.131,10.213z"/>
	</g>
</g>
<g>
	<g>
		<path d="M48.527,15.489c-0.631-1.707-1.269-3.413-1.901-5.121c-0.049-0.127-0.107-0.176-0.246-0.174
			c-0.436,0.008-0.87,0.015-1.305-0.002c-0.193-0.009-0.281,0.071-0.342,0.232c-0.099,0.271-0.201,0.543-0.304,0.815
			c-0.424,1.124-0.85,2.246-1.271,3.371c-0.136,0.365-0.263,0.735-0.404,1.129c0.581,0,1.122,0.005,1.662-0.007
			c0.065-0.001,0.157-0.077,0.186-0.14c0.087-0.205,0.153-0.421,0.229-0.641c0.52,0,1.028-0.004,1.534,0.007
			c0.063,0.001,0.15,0.08,0.174,0.143c0.066,0.164,0.096,0.341,0.158,0.506c0.021,0.054,0.095,0.125,0.147,0.125
			c0.572,0.01,1.146,0.006,1.75,0.006C48.566,15.627,48.552,15.556,48.527,15.489z M45.214,13.73
			c0.159-0.499,0.313-0.977,0.481-1.503c0.156,0.522,0.299,0.997,0.451,1.503C45.832,13.73,45.547,13.73,45.214,13.73z"/>
	</g>
</g>
<g>
	<g>
		<path d="M19.422,12.017c-0.181-0.706-0.55-1.267-1.246-1.574c-0.409-0.181-0.842-0.23-1.276-0.241
			c-0.818-0.02-1.638-0.006-2.458-0.006c-0.086,0-0.173,0-0.272,0c0,1.857,0,3.682,0,5.543c0.113,0,0.202,0,0.291,0
			c0.77,0,1.54,0.01,2.311-0.003c0.297-0.006,0.6-0.036,0.888-0.103c0.714-0.163,1.281-0.547,1.593-1.226
			C19.607,13.636,19.631,12.829,19.422,12.017z M17.52,13.793c-0.363,0.581-0.967,0.482-1.545,0.488c0-0.86,0-1.7,0-2.561
			c0.606-0.05,1.203-0.067,1.564,0.507C17.856,12.732,17.835,13.288,17.52,13.793z"/>
	</g>
</g>
<g>
	<g>
		<path d="M46.269,38.403c-0.048-0.054-0.06-0.076-0.078-0.086c-0.781-0.467-1.563-0.932-2.346-1.396
			c-0.839-0.5-1.677-0.997-2.516-1.498c-0.915-0.548-1.829-1.097-2.744-1.644c-0.844-0.502-1.688-1.002-2.531-1.507
			c-0.82-0.491-1.64-0.989-2.462-1.479c-0.938-0.559-1.877-1.109-2.812-1.67c-0.822-0.49-1.639-0.989-2.463-1.48
			c-0.937-0.561-1.877-1.11-2.812-1.668c-0.765-0.457-1.526-0.921-2.292-1.378c-0.993-0.592-1.99-1.18-2.984-1.771
			c-0.978-0.584-1.952-1.171-2.929-1.755c-0.967-0.578-1.937-1.152-2.903-1.73c-1.396-0.835-2.788-1.675-4.184-2.509
			c-1.117-0.667-2.239-1.327-3.357-1.992c-0.875-0.521-1.748-1.043-2.622-1.566c-1.256-0.752-2.514-1.5-3.766-2.258
			C0.317,10.924,0.179,10.923,0,10.948c0,4.575,0,9.147,0,13.722h23.148v13.563L0,24.835c0,2.259,0,4.519,0,6.779
			c3.88,0,7.731,0,11.601,0c0,2.27,0,4.521,0,6.789C23.155,38.403,34.689,38.403,46.269,38.403z"/>
	</g>
</g>
<g>
	<g>
		<path d="M0.018,31.644c0,2.261,0,4.499,0,6.745c3.822,0,7.621,0,11.461,0C7.639,36.129,3.836,33.89,0.018,31.644z"/>
	</g>
</g>
<g>
</g>
<g>
</g>
<g>
</g>
<g>
</g>
<g>
</g>
<g>
</g>
<g>
</g>
<g>
</g>
<g>
</g>
<g>
</g>
<g>
</g>
<g>
</g>
<g>
</g>
<g>
</g>
<g>
</g>
</svg>
